<?xml version="1.0" standalone="no"?>
<!DOCTYPE svg PUBLIC "-//W3C//DTD SVG 20010904//EN"
 "http://www.w3.org/TR/2001/REC-SVG-20010904/DTD/svg10.dtd">
<svg version="1.0" xmlns="http://www.w3.org/2000/svg"
 width="113.000000pt" height="113.000000pt" viewBox="0 0 113.000000 113.000000"
 preserveAspectRatio="xMidYMid meet">
<metadata>
Created by potrace 1.14, written by Peter Selinger 2001-2017
</metadata>
<g transform="translate(0.000000,113.000000) scale(0.100000,-0.100000)"
fill="#000000" stroke="none">
<path d="M315 947 l-210 -122 -2 -253 -1 -252 135 -80 c74 -44 136 -80 138
-80 1 0 39 -22 85 -49 l82 -49 37 20 c20 11 65 37 101 58 36 21 83 48 105 60
22 12 75 43 118 68 72 43 77 48 78 81 4 164 1 460 -5 469 -6 10 -221 142 -231
142 -2 0 -42 22 -88 49 -46 28 -94 52 -108 55 -18 4 -75 -24 -234 -117z"/>
</g>
</svg>
